<?xml version="1.0" encoding="UTF-8"?>
<svg width="23px" height="22px" viewBox="0 0 23 22" version="1.1" xmlns="http://www.w3.org/2000/svg" xmlns:xlink="http://www.w3.org/1999/xlink">
    <!-- Generator: Sketch 49.3 (51167) - http://www.bohemiancoding.com/sketch -->
    <title>ICON</title>
    <desc>Created with Sketch.</desc>
    <defs></defs>
    <g id="Symbols" stroke="none" stroke-width="1" fill="none" fill-rule="evenodd">
        <path d="M11.8820574,0.155879647 L17.352904,5.27886864 L22.8237507,10.4018576 C23.0448956,10.6168608 23.060834,10.9666794 22.8551294,11.197219 C22.7445569,11.3164981 22.5941385,11.3721283 22.4442182,11.3721283 L22.4442182,11.3801471 L19.6774162,11.3801471 L19.6774162,21.4351782 C19.6774162,21.7454042 19.4243945,22 19.1160866,22 L14.7599299,22 C14.451622,22 14.2065695,21.7454042 14.2065695,21.4351782 L14.2065695,13.7030833 L8.79897826,13.7030833 L8.79897826,21.4351782 C8.79897826,21.7454042 8.54595658,22 8.23764867,22 L3.88149199,22 C3.57318408,22 3.32813159,21.7454042 3.32813159,21.4351782 L3.32813159,11.3801471 L0.553360401,11.3801471 C0.245052491,11.3801471 0,11.1260524 0,10.8158264 C0,10.6409171 0.0791937928,10.4815441 0.205704632,10.3783025 L5.65264374,5.27936981 L11.1229923,0.147860882 C11.3366661,-0.0506035717 11.6683835,-0.0506035717 11.8820574,0.155879647 L11.8820574,0.155879647 Z" id="ICON" fill="#414B6B"></path>
    </g>
</svg>