<?xml version="1.0" encoding="UTF-8"?>
<svg width="24px" height="24px" viewBox="0 0 24 24" version="1.1" xmlns="http://www.w3.org/2000/svg" xmlns:xlink="http://www.w3.org/1999/xlink">
    <!-- Generator: Sketch 49.3 (51167) - http://www.bohemiancoding.com/sketch -->
    <title>noun_13155_cc</title>
    <desc>Created with Sketch.</desc>
    <defs></defs>
    <g id="Symbols" stroke="none" stroke-width="1" fill="none" fill-rule="evenodd">
        <g id="Icon/Turnier" fill="#414B6B" fill-rule="nonzero">
            <g id="noun_13155_cc">
                <path d="M14.060984,15.8284898 C14.0845091,15.8164898 14.1142756,15.8047347 14.1272384,15.7934694 C15.6856573,15.1383673 17.1216495,13.8203265 18.1421114,12.1187755 C27.4837426,6.22138776 23.5941768,1.55657143 20.4828603,2.38334694 C20.6628995,0.972 20.7589204,0 20.7589204,0 L3.24615248,0 C3.24615248,0 3.33857258,0.972 3.51909183,2.38334694 C0.407535271,1.55657143 -3.48515113,6.19934694 5.85624001,12.0967347 C6.87670189,13.7982857 8.30597266,15.1273469 9.86439152,15.782449 C9.87759439,15.7937143 9.91816321,15.811102 9.94192838,15.823102 C10.7756297,16.2484898 10.7998749,17.1046531 10.7998749,17.1046531 L10.7998749,19.2318367 C10.7998749,22.6346939 7.41585912,22.5306122 7.41585912,22.5306122 L6.95903979,22.5306122 L6.95903979,24 L17.041232,24 L17.041232,22.5306122 L16.5892137,22.5306122 C16.5892137,22.5306122 13.2003969,22.6346939 13.2003969,19.2315918 L13.2003969,17.1044082 C13.2003969,17.1046531 13.2268026,16.2538776 14.060984,15.8284898 Z M18.9443658,10.497551 C19.1839379,9.88946939 19.3791003,9.25518367 19.5080084,8.59689796 C19.8337592,6.93404082 20.0978166,5.25330612 20.2980201,3.8284898 C22.9652401,3.30342857 24.5995154,5.76293878 18.9443658,10.497551 Z M3.70729275,3.8284898 C3.90725623,5.25306122 4.17131365,6.93404082 4.49730453,8.59689796 C4.62645261,9.25518367 4.82161504,9.88922449 5.06118713,10.497551 C-0.594682645,5.76293878 1.03983275,3.30342857 3.70729275,3.8284898 Z" id="Shape"></path>
            </g>
        </g>
    </g>
</svg>