<?xml version="1.0" encoding="UTF-8"?>
<svg width="190px" height="174px" viewBox="0 0 190 174" version="1.1" xmlns="http://www.w3.org/2000/svg" xmlns:xlink="http://www.w3.org/1999/xlink">
    <!-- Generator: Sketch 49.3 (51167) - http://www.bohemiancoding.com/sketch -->
    <title>Icon/Soccer</title>
    <desc>Created with Sketch.</desc>
    <defs></defs>
    <g id="Page-1" stroke="none" stroke-width="1" fill="none" fill-rule="evenodd" opacity="0.584295743">
        <g id="Tournier-erstellen-ohne-vorhandene-Turniere" transform="translate(-94.000000, -196.000000)" fill="#414B6B">
            <g id="Icon/Soccer" transform="translate(98.000000, 189.000000)">
                <g id="noun_203052_cc" transform="translate(0.000000, 7.500000)">
                    <g id="Group" fill-rule="nonzero">
                        <path d="M98.8452,39.3435326 C104.6484,35.7924457 108.5598,29.126087 108.5598,21.4822826 C108.5598,10.1116304 100.6722,1.65538043 89.9982,1.65538043 C79.3278,1.65538043 71.442,10.109837 71.442,21.4822826 C71.442,29.1278804 75.3534,35.7924457 81.1584,39.3453261 C77.9526,40.54875 73.854,42.3368478 70.2702,44.715 C68.9004,54.4930435 67.275,64.0845652 69.588,73.5666848 C75.2166,78.74625 75.2634,84.35625 74.1006,90.2316848 C74.1006,90.2316848 74.0502,90.7894565 74.0772,90.79125 L80.298,120.907337 C78.7572,120.907337 76.4478,120.907337 74.907,120.907337 C73.6452,120.910924 72.612,121.938587 72.612,123.195815 C72.612,130.296196 72.612,137.400163 72.612,144.500543 C72.612,145.755978 73.6398,146.950435 74.898,147.127989 C84.9186,148.496413 95.0832,148.496413 105.102,147.127989 C106.3602,146.950435 107.388,145.755978 107.388,144.500543 C107.388,137.400163 107.388,130.296196 107.388,123.195815 C107.388,121.938587 106.3548,120.910924 105.093,120.907337 C103.554,120.907337 101.2446,120.907337 99.7056,120.907337 L105.9228,90.79125 C105.9534,90.787663 105.8994,90.2316848 105.8994,90.2316848 C104.7366,84.35625 104.7834,78.74625 110.4138,73.5666848 C112.725,64.0827717 111.1014,54.4930435 109.7316,44.715 C106.1478,42.3350543 102.0492,40.545163 98.8452,39.3435326 Z" id="Shape"></path>
                        <ellipse id="Oval" cx="36.1332" cy="143.863859" rx="21.0474" ry="20.9711413"></ellipse>
                        <path d="M0,45.956087 L0,46.8528261 L0,65.6484783 L0,66.5452174 L0,67.4419565 L61.4772,67.4419565 C60.9768,60.26625 62.9982,45.0593478 62.9982,45.0593478 L0,45.0593478 L0,45.956087 Z" id="Shape"></path>
                        <path d="M117.1116,45.0593478 C117.1116,45.0593478 119.1312,60.2644565 118.6308,67.4419565 L180,67.4419565 L180,66.5452174 L180,65.6484783 L180,46.8528261 L180,45.956087 L180,45.0593478 L117.1116,45.0593478 Z" id="Shape"></path>
                    </g>
                </g>
            </g>
        </g>
    </g>
</svg>